<?xml version="1.0" encoding="utf-8"?><svg version="1.1" id="Layer_1" xmlns="http://www.w3.org/2000/svg" xmlns:xlink="http://www.w3.org/1999/xlink" x="0px" y="0px" viewBox="0 0 22 22" style="enable-background:new 0 0 22 22;" xml:space="preserve"><style type="text/css">.st0{fill:#FFFFFF;}</style><path class="st0" d="M18.6,14.7c0.2,0,0.4-0.1,0.5-0.1c0.1-0.1,0.1-0.2,0.2-0.4c0.6-2.2,1.3-4.5,1.9-6.7c0.1-0.3,0-0.5-0.1-0.7c-0.1-0.2-0.3-0.3-0.6-0.3H5.8C5.4,5.2,5,3.8,4.6,2.5C4.5,2.4,4.5,2.2,4.4,2.2C4.2,2.1,4.1,2,3.9,2H0.8c-1,0-1,1.4,0,1.4h2.6c1.2,4.4,2.5,8.8,3.7,13.2c-0.8,0.4-1.4,1.1-1.4,2C5.6,19.9,6.7,21,8,21s2.4-1,2.4-2.3c0-0.3-0.1-0.5-0.1-0.8h4.7c-0.1,0.2-0.1,0.5-0.1,0.8c0,1.2,1.1,2.3,2.3,2.3c1.3,0,2.4-1,2.4-2.3c0-1.2-1-2.2-2.3-2.3h-0.1H8.6c-0.1-0.6-0.3-1.2-0.5-1.8L18.6,14.7L18.6,14.7z M10.6,8c0.5,1.8,0.9,3.5,1.4,5.2h-1.4C10.2,11.5,9.7,9.7,9.2,8H10.6L10.6,8z M13.4,8c0.5,1.8,0.9,3.5,1.4,5.2h-1.4c-0.4-1.8-0.9-3.5-1.4-5.2C12.1,8,13.4,8,13.4,8z M16.4,8c0.5,1.8,1,3.5,1.4,5.2h-1.4C16,11.5,15.5,9.7,15,8H16.4z M18.7,10.7c-0.2-0.9-0.5-1.8-0.8-2.7h1.5C19.2,8.9,19,9.8,18.7,10.7z M7.6,8c0.5,1.8,0.9,3.5,1.4,5.2H7.7c-0.5-1.8-1-3.5-1.5-5.2C6.2,8,7.6,8,7.6,8z M8,19.6c-0.5,0-0.8-0.4-0.8-0.8c0-0.5,0.4-0.8,0.8-0.8c0.5,0,0.8,0.4,0.8,0.8C8.8,19.2,8.4,19.6,8,19.6L8,19.6z M17.1,19.6c-0.5,0-0.8-0.4-0.8-0.8c0-0.5,0.4-0.8,0.8-0.8c0.5,0,0.8,0.4,0.8,0.8C17.8,19.2,17.5,19.6,17.1,19.6L17.1,19.6z"/></svg>